<svg width="22" height="17" viewBox="0 0 22 17" fill="none" xmlns="http://www.w3.org/2000/svg">
<g opacity="0.5">
<path d="M18.2986 1.82631C16.9632 1.21242 15.5311 0.760131 14.0338 0.501087C14.0065 0.496087 13.9793 0.508581 13.9653 0.53357C13.7811 0.861747 13.5771 1.28988 13.4342 1.62639C11.8238 1.38484 10.2216 1.38484 8.64418 1.62639C8.50129 1.2824 8.28988 0.861747 8.10488 0.53357C8.09083 0.509415 8.0636 0.496921 8.03633 0.501087C6.53986 0.759303 5.10781 1.21159 3.77155 1.82631C3.75998 1.83131 3.75006 1.83965 3.74348 1.85047C1.02718 5.9161 0.283075 9.8818 0.648109 13.7983C0.649761 13.8175 0.660497 13.8358 0.675363 13.8475C2.4675 15.166 4.20349 15.9665 5.90724 16.4971C5.93451 16.5054 5.9634 16.4954 5.98075 16.4729C6.38378 15.9215 6.74304 15.3401 7.05107 14.7287C7.06924 14.6929 7.05189 14.6504 7.01474 14.6363C6.44489 14.4197 5.90229 14.1557 5.38033 13.8558C5.33905 13.8317 5.33574 13.7725 5.37372 13.7442C5.48356 13.6617 5.59343 13.5759 5.69831 13.4893C5.71728 13.4735 5.74373 13.4701 5.76604 13.4801C9.19503 15.0486 12.9073 15.0486 16.2958 13.4801C16.3182 13.4693 16.3446 13.4726 16.3644 13.4885C16.4693 13.5751 16.5791 13.6617 16.6898 13.7442C16.7278 13.7725 16.7253 13.8317 16.684 13.8558C16.1621 14.1615 15.6195 14.4197 15.0488 14.6354C15.0116 14.6496 14.9951 14.6929 15.0133 14.7287C15.3279 15.3393 15.6872 15.9207 16.0828 16.4721C16.0993 16.4954 16.129 16.5054 16.1563 16.4971C17.8683 15.9665 19.6043 15.166 21.3964 13.8475C21.4121 13.8358 21.422 13.8183 21.4237 13.7992C21.8606 9.27122 20.6919 5.33804 18.3258 1.8513C18.3201 1.83965 18.3102 1.83131 18.2986 1.82631ZM7.56313 11.4136C6.53077 11.4136 5.68013 10.464 5.68013 9.29789C5.68013 8.13175 6.51427 7.1822 7.56313 7.1822C8.62022 7.1822 9.46263 8.14009 9.4461 9.29789C9.4461 10.464 8.61196 11.4136 7.56313 11.4136ZM14.5252 11.4136C13.4929 11.4136 12.6422 10.464 12.6422 9.29789C12.6422 8.13175 13.4763 7.1822 14.5252 7.1822C15.5823 7.1822 16.4247 8.14009 16.4082 9.29789C16.4082 10.464 15.5823 11.4136 14.5252 11.4136Z" fill="white"/>
</g>
</svg>
