<svg width="25" height="25" viewBox="0 0 25 25" fill="none" xmlns="http://www.w3.org/2000/svg">
<path d="M11.5312 14.6767C11.1407 15.0672 11.1407 15.7004 11.5312 16.0909C11.9217 16.4814 12.5549 16.4814 12.9454 16.0909L11.5312 14.6767ZM15.2383 12.3838L15.9454 13.0909C16.1329 12.9034 16.2383 12.649 16.2383 12.3838C16.2383 12.1186 16.1329 11.8642 15.9454 11.6767L15.2383 12.3838ZM12.9454 8.67668C12.5549 8.28616 11.9217 8.28616 11.5312 8.67668C11.1407 9.06721 11.1407 9.70037 11.5312 10.0909L12.9454 8.67668ZM4.23828 11.3838C3.686 11.3838 3.23828 11.8315 3.23828 12.3838C3.23828 12.9361 3.686 13.3838 4.23828 13.3838L4.23828 11.3838ZM12.9454 16.0909L15.9454 13.0909L14.5312 11.6767L11.5312 14.6767L12.9454 16.0909ZM15.9454 11.6767L12.9454 8.67668L11.5312 10.0909L14.5312 13.0909L15.9454 11.6767ZM4.23828 13.3838L15.2383 13.3838V11.3838L4.23828 11.3838L4.23828 13.3838Z" fill="#D2D2D2"/>
<path d="M4.23828 7.38379V5.38379C4.23828 4.8315 4.686 4.38379 5.23828 4.38379H19.2383C19.7906 4.38379 20.2383 4.8315 20.2383 5.38379V19.3838C20.2383 19.9361 19.7906 20.3838 19.2383 20.3838H5.23828C4.686 20.3838 4.23828 19.9361 4.23828 19.3838V17.3838" stroke="#D2D2D2" stroke-width="2" stroke-linecap="round" stroke-linejoin="round"/>
</svg>
