<svg width="23" height="23" viewBox="0 0 23 23" fill="none" xmlns="http://www.w3.org/2000/svg">
<g clip-path="url(#clip0_2275_9892)">
<path fill-rule="evenodd" clip-rule="evenodd" d="M1.41739 2.97053C0.901367 3.96392 0.901367 5.269 0.901367 7.87917V15.1208C0.901367 17.731 0.901367 19.0361 1.41739 20.0295C1.85224 20.8666 2.53479 21.5491 3.3719 21.984C4.36529 22.5 5.67037 22.5 8.28053 22.5H15.5222C18.1324 22.5 19.4375 22.5 20.4308 21.984C21.2679 21.5491 21.9505 20.8666 22.3853 20.0295C22.9014 19.0361 22.9014 17.731 22.9014 15.1208V7.87917C22.9014 5.269 22.9014 3.96392 22.3853 2.97053C21.9505 2.13342 21.2679 1.45087 20.4308 1.01602C19.4375 0.5 18.1324 0.5 15.5222 0.5H8.28053C5.67037 0.5 4.36529 0.5 3.3719 1.01602C2.53479 1.45087 1.85224 2.13342 1.41739 2.97053ZM8.59151 3.54833C9.44481 3.5095 9.71747 3.5 11.8901 3.5H11.8876C14.0608 3.5 14.3325 3.5095 15.1858 3.54833C16.0374 3.58733 16.6191 3.72217 17.1291 3.92C17.6557 4.12417 18.1007 4.3975 18.5457 4.8425C18.9907 5.28717 19.264 5.7335 19.469 6.25967C19.6657 6.76833 19.8007 7.34967 19.8407 8.20133C19.879 9.05467 19.889 9.32733 19.889 11.5C19.889 13.6727 19.879 13.9447 19.8407 14.798C19.8007 15.6493 19.6657 16.2308 19.469 16.7397C19.264 17.2657 18.9907 17.712 18.5457 18.1567C18.1012 18.6017 17.6556 18.8757 17.1296 19.08C16.6206 19.2778 16.0386 19.4127 15.187 19.4517C14.3337 19.4905 14.0618 19.5 11.8891 19.5C9.71664 19.5 9.44415 19.4905 8.59084 19.4517C7.73937 19.4127 7.15788 19.2778 6.6489 19.08C6.12308 18.8757 5.67676 18.6017 5.23227 18.1567C4.78745 17.712 4.51413 17.2657 4.30964 16.7395C4.11198 16.2308 3.97715 15.6495 3.93798 14.7978C3.89931 13.9445 3.88965 13.6727 3.88965 11.5C3.88965 9.32733 3.89965 9.0545 3.93781 8.20117C3.97615 7.34983 4.11114 6.76833 4.30947 6.2595C4.51446 5.7335 4.78779 5.28717 5.23277 4.8425C5.67743 4.39767 6.12375 4.12433 6.6499 3.92C7.15855 3.72217 7.73987 3.58733 8.59151 3.54833ZM11.6234 4.94159C11.4617 4.94152 11.3118 4.94145 11.1724 4.94167V4.93967C9.68147 4.94133 9.39548 4.95133 8.6575 4.98467C7.87753 5.0205 7.45404 5.1505 7.17205 5.2605C6.79873 5.40583 6.53207 5.57917 6.25208 5.85917C5.97209 6.13917 5.79842 6.40583 5.65343 6.77917C5.54393 7.06117 5.4136 7.4845 5.37794 8.2645C5.3396 9.10783 5.33194 9.35983 5.33194 11.4962C5.33194 13.6325 5.3396 13.8858 5.37794 14.7292C5.41344 15.5092 5.54393 15.9325 5.65343 16.2142C5.79876 16.5877 5.97209 16.8537 6.25208 17.1337C6.53207 17.4137 6.79873 17.587 7.17205 17.732C7.45421 17.8415 7.87753 17.9718 8.6575 18.0078C9.50081 18.0462 9.75397 18.0545 11.8901 18.0545C14.026 18.0545 14.2793 18.0462 15.1226 18.0078C15.9026 17.9722 16.3263 17.8422 16.6079 17.7322C16.9814 17.5872 17.2472 17.4138 17.5272 17.1338C17.8072 16.854 17.9809 16.5882 18.1259 16.2148C18.2354 15.9332 18.3657 15.5098 18.4014 14.7298C18.4397 13.8865 18.448 13.6332 18.448 11.4982C18.448 9.36317 18.4397 9.10983 18.4014 8.2665C18.3659 7.4865 18.2354 7.06317 18.1259 6.7815C17.9806 6.40817 17.8072 6.1415 17.5272 5.8615C17.2474 5.5815 16.9813 5.40817 16.6079 5.26317C16.3259 5.15367 15.9026 5.02333 15.1226 4.98767C14.2792 4.94933 14.026 4.94167 11.8901 4.94167C11.7978 4.94167 11.7089 4.94163 11.6234 4.94159ZM15.2003 7.22967C15.2003 6.6995 15.6303 6.27 16.1603 6.27V6.26967C16.6903 6.26967 17.1202 6.69967 17.1202 7.22967C17.1202 7.75967 16.6903 8.18967 16.1603 8.18967C15.6303 8.18967 15.2003 7.75967 15.2003 7.22967ZM7.78186 11.5C7.78186 9.23122 9.62122 7.39176 11.8899 7.39167C14.1587 7.39167 15.9976 9.23117 15.9976 11.5C15.9976 13.7688 14.1588 15.6075 11.8901 15.6075C9.62131 15.6075 7.78186 13.7688 7.78186 11.5ZM14.5567 11.5C14.5567 10.0272 13.3627 8.83333 11.8901 8.83333C10.4173 8.83333 9.22349 10.0272 9.22349 11.5C9.22349 12.9727 10.4173 14.1667 11.8901 14.1667C13.3627 14.1667 14.5567 12.9727 14.5567 11.5Z" fill="white"/>
<path fill-rule="evenodd" clip-rule="evenodd" d="M1.41739 2.97053C0.901367 3.96392 0.901367 5.269 0.901367 7.87917V15.1208C0.901367 17.731 0.901367 19.0361 1.41739 20.0295C1.85224 20.8666 2.53479 21.5491 3.3719 21.984C4.36529 22.5 5.67037 22.5 8.28053 22.5H15.5222C18.1324 22.5 19.4375 22.5 20.4308 21.984C21.2679 21.5491 21.9505 20.8666 22.3853 20.0295C22.9014 19.0361 22.9014 17.731 22.9014 15.1208V7.87917C22.9014 5.269 22.9014 3.96392 22.3853 2.97053C21.9505 2.13342 21.2679 1.45087 20.4308 1.01602C19.4375 0.5 18.1324 0.5 15.5222 0.5H8.28053C5.67037 0.5 4.36529 0.5 3.3719 1.01602C2.53479 1.45087 1.85224 2.13342 1.41739 2.97053ZM8.59151 3.54833C9.44481 3.5095 9.71747 3.5 11.8901 3.5H11.8876C14.0608 3.5 14.3325 3.5095 15.1858 3.54833C16.0374 3.58733 16.6191 3.72217 17.1291 3.92C17.6557 4.12417 18.1007 4.3975 18.5457 4.8425C18.9907 5.28717 19.264 5.7335 19.469 6.25967C19.6657 6.76833 19.8007 7.34967 19.8407 8.20133C19.879 9.05467 19.889 9.32733 19.889 11.5C19.889 13.6727 19.879 13.9447 19.8407 14.798C19.8007 15.6493 19.6657 16.2308 19.469 16.7397C19.264 17.2657 18.9907 17.712 18.5457 18.1567C18.1012 18.6017 17.6556 18.8757 17.1296 19.08C16.6206 19.2778 16.0386 19.4127 15.187 19.4517C14.3337 19.4905 14.0618 19.5 11.8891 19.5C9.71664 19.5 9.44415 19.4905 8.59084 19.4517C7.73937 19.4127 7.15788 19.2778 6.6489 19.08C6.12308 18.8757 5.67676 18.6017 5.23227 18.1567C4.78745 17.712 4.51413 17.2657 4.30964 16.7395C4.11198 16.2308 3.97715 15.6495 3.93798 14.7978C3.89931 13.9445 3.88965 13.6727 3.88965 11.5C3.88965 9.32733 3.89965 9.0545 3.93781 8.20117C3.97615 7.34983 4.11114 6.76833 4.30947 6.2595C4.51446 5.7335 4.78779 5.28717 5.23277 4.8425C5.67743 4.39767 6.12375 4.12433 6.6499 3.92C7.15855 3.72217 7.73987 3.58733 8.59151 3.54833ZM11.6234 4.94159C11.4617 4.94152 11.3118 4.94145 11.1724 4.94167V4.93967C9.68147 4.94133 9.39548 4.95133 8.6575 4.98467C7.87753 5.0205 7.45404 5.1505 7.17205 5.2605C6.79873 5.40583 6.53207 5.57917 6.25208 5.85917C5.97209 6.13917 5.79842 6.40583 5.65343 6.77917C5.54393 7.06117 5.4136 7.4845 5.37794 8.2645C5.3396 9.10783 5.33194 9.35983 5.33194 11.4962C5.33194 13.6325 5.3396 13.8858 5.37794 14.7292C5.41344 15.5092 5.54393 15.9325 5.65343 16.2142C5.79876 16.5877 5.97209 16.8537 6.25208 17.1337C6.53207 17.4137 6.79873 17.587 7.17205 17.732C7.45421 17.8415 7.87753 17.9718 8.6575 18.0078C9.50081 18.0462 9.75397 18.0545 11.8901 18.0545C14.026 18.0545 14.2793 18.0462 15.1226 18.0078C15.9026 17.9722 16.3263 17.8422 16.6079 17.7322C16.9814 17.5872 17.2472 17.4138 17.5272 17.1338C17.8072 16.854 17.9809 16.5882 18.1259 16.2148C18.2354 15.9332 18.3657 15.5098 18.4014 14.7298C18.4397 13.8865 18.448 13.6332 18.448 11.4982C18.448 9.36317 18.4397 9.10983 18.4014 8.2665C18.3659 7.4865 18.2354 7.06317 18.1259 6.7815C17.9806 6.40817 17.8072 6.1415 17.5272 5.8615C17.2474 5.5815 16.9813 5.40817 16.6079 5.26317C16.3259 5.15367 15.9026 5.02333 15.1226 4.98767C14.2792 4.94933 14.026 4.94167 11.8901 4.94167C11.7978 4.94167 11.7089 4.94163 11.6234 4.94159ZM15.2003 7.22967C15.2003 6.6995 15.6303 6.27 16.1603 6.27V6.26967C16.6903 6.26967 17.1202 6.69967 17.1202 7.22967C17.1202 7.75967 16.6903 8.18967 16.1603 8.18967C15.6303 8.18967 15.2003 7.75967 15.2003 7.22967ZM7.78186 11.5C7.78186 9.23122 9.62122 7.39176 11.8899 7.39167C14.1587 7.39167 15.9976 9.23117 15.9976 11.5C15.9976 13.7688 14.1588 15.6075 11.8901 15.6075C9.62131 15.6075 7.78186 13.7688 7.78186 11.5ZM14.5567 11.5C14.5567 10.0272 13.3627 8.83333 11.8901 8.83333C10.4173 8.83333 9.22349 10.0272 9.22349 11.5C9.22349 12.9727 10.4173 14.1667 11.8901 14.1667C13.3627 14.1667 14.5567 12.9727 14.5567 11.5Z" fill="white"/>
</g>
<defs>
<clipPath id="clip0_2275_9892">
<rect width="22" height="22" fill="white" transform="translate(0.889648 0.5)"/>
</clipPath>
</defs>
</svg>
