<svg width="18" height="18" viewBox="0 0 18 18" fill="none" xmlns="http://www.w3.org/2000/svg">
<path d="M6.44104 11.7233L12.0979 6.06641" stroke="white" stroke-width="2" stroke-linecap="round" stroke-linejoin="round"/>
<path d="M5.02641 8.89461C5.41694 8.50408 5.41694 7.87092 5.02641 7.48039C4.63589 7.08987 4.00272 7.08987 3.6122 7.48039L5.02641 8.89461ZM10.6833 14.5515C11.0738 14.1609 11.0738 13.5278 10.6833 13.1372C10.2927 12.7467 9.65958 12.7467 9.26905 13.1372L10.6833 14.5515ZM3.6122 7.48039L2.19799 8.89461L3.6122 10.3088L5.02641 8.89461L3.6122 7.48039ZM9.26905 15.9657L10.6833 14.5515L9.26905 13.1372L7.85484 14.5515L9.26905 15.9657ZM2.19799 15.9657C4.15061 17.9183 7.31643 17.9183 9.26905 15.9657L7.85484 14.5515C6.68327 15.723 4.78377 15.723 3.6122 14.5515L2.19799 15.9657ZM2.19799 8.89461C0.245365 10.8472 0.245365 14.0131 2.19799 15.9657L3.6122 14.5515C2.44063 13.3799 2.44063 11.4804 3.6122 10.3088L2.19799 8.89461Z" fill="white"/>
<path d="M7.85503 3.23757C7.4645 3.62809 7.4645 4.26126 7.85503 4.65178C8.24555 5.0423 8.87872 5.0423 9.26924 4.65178L7.85503 3.23757ZM13.5119 8.89442C13.1214 9.28494 13.1214 9.91811 13.5119 10.3086C13.9024 10.6992 14.5356 10.6992 14.9261 10.3086L13.5119 8.89442ZM9.26924 4.65178L10.6835 3.23757L9.26924 1.82335L7.85503 3.23757L9.26924 4.65178ZM14.9261 7.48021L13.5119 8.89442L14.9261 10.3086L16.3403 8.89442L14.9261 7.48021ZM14.9261 3.23757C16.0977 4.40914 16.0977 6.30863 14.9261 7.48021L16.3403 8.89442C18.2929 6.9418 18.2929 3.77597 16.3403 1.82335L14.9261 3.23757ZM10.6835 3.23757C11.855 2.06599 13.7545 2.06599 14.9261 3.23757L16.3403 1.82335C14.3877 -0.129269 11.2219 -0.129269 9.26924 1.82335L10.6835 3.23757Z" fill="white"/>
</svg>
