<svg width="25" height="25" viewBox="0 0 25 25" fill="none" xmlns="http://www.w3.org/2000/svg">
<path d="M12.8345 16.6201C15.0436 16.6201 16.8345 14.8293 16.8345 12.6201C16.8345 10.411 15.0436 8.62012 12.8345 8.62012C10.6253 8.62012 8.83447 10.411 8.83447 12.6201C8.83447 14.8293 10.6253 16.6201 12.8345 16.6201Z" stroke="#D2D2D2" stroke-width="2" stroke-linecap="round" stroke-linejoin="round"/>
<path d="M19.9358 8.4463L20.8017 7.94611L20.8017 7.94611L19.9358 8.4463ZM20.0016 8.56016L19.1357 9.06035L19.1357 9.06035L20.0016 8.56016ZM20.7611 9.30753L21.2473 8.43365L21.2473 8.43365L20.7611 9.30753ZM22.3122 10.1704L21.8261 11.0443L21.8261 11.0443L22.3122 10.1704ZM22.8261 11.042L21.8261 11.0443V11.0443L22.8261 11.042ZM22.8333 14.1939L21.8333 14.1961V14.1961L22.8333 14.1939ZM22.318 15.0708L21.8333 14.1961V14.1961L22.318 15.0708ZM20.7631 15.9325L21.2478 16.8072L20.7631 15.9325ZM20.0007 16.6814L19.1348 16.1812L19.1348 16.1813L20.0007 16.6814ZM19.9358 16.7938L20.8017 17.294L20.8017 17.294L19.9358 16.7938ZM19.6679 17.8278L18.6681 17.8446V17.8446L19.6679 17.8278ZM19.6979 19.6087L18.698 19.6255L19.6979 19.6087ZM19.2 20.4904L18.698 19.6255H18.698L19.2 20.4904ZM16.472 22.0737L16.974 22.9386H16.974L16.472 22.0737ZM15.4553 22.0662L15.97 21.2088L15.4553 22.0662ZM13.9293 21.15L13.4145 22.0074L13.9293 21.15ZM11.7407 21.1488L12.2544 22.0068L12.2544 22.0068L11.7407 21.1488ZM10.2216 22.0584L9.70788 21.2005L9.70788 21.2005L10.2216 22.0584ZM9.20859 22.0669L9.70788 21.2005L9.20859 22.0669ZM6.47196 20.4899L6.97125 19.6235L6.47196 20.4899ZM5.97139 19.6066L6.97125 19.6235L5.97139 19.6066ZM6.00132 17.8335L5.00146 17.8166L6.00132 17.8335ZM5.73737 16.8062L6.60525 16.3094L5.73737 16.8062ZM5.66785 16.6847L4.79996 17.1815L4.79997 17.1815L5.66785 16.6847ZM4.90437 15.9305L4.41823 16.8044H4.41823L4.90437 15.9305ZM3.35695 15.0696L2.87081 15.9435L2.87081 15.9435L3.35695 15.0696ZM2.8431 14.198L1.8431 14.2003L2.8431 14.198ZM2.83594 11.0462L3.83594 11.0439L2.83594 11.0462ZM3.35122 10.1693L3.83594 11.0439H3.83594L3.35122 10.1693ZM4.90611 9.30759L4.42139 8.43292L4.42139 8.43292L4.90611 9.30759ZM5.66851 8.55864L4.80259 8.05844L4.80259 8.05844L5.66851 8.55864ZM5.73339 8.44631L6.59931 8.9465L6.59931 8.9465L5.73339 8.44631ZM6.00128 7.41227L7.00114 7.39545L6.00128 7.41227ZM5.97132 5.63136L4.97146 5.64819L5.97132 5.63136ZM6.46921 4.74966L6.97118 5.61454L6.97118 5.61454L6.46921 4.74966ZM9.19719 3.16636L9.69916 4.03125L9.69916 4.03125L9.19719 3.16636ZM10.2139 3.17389L9.69916 4.03125V4.03125L10.2139 3.17389ZM11.7399 4.09006L11.2252 4.94742L11.7399 4.09006ZM13.9285 4.09125L13.4148 3.23329L13.4148 3.23329L13.9285 4.09125ZM15.4476 3.18167L14.9339 2.32371V2.32371L15.4476 3.18167ZM16.4606 3.17319L16.9599 2.30675L16.9599 2.30675L16.4606 3.17319ZM19.1973 4.75019L19.6966 3.88375L19.1973 4.75019ZM19.6978 5.63345L18.698 5.61663V5.61663L19.6978 5.63345ZM19.6679 7.41227L18.6681 7.39545V7.39545L19.6679 7.41227ZM19.0699 8.9465L19.1357 9.06035L20.8675 8.05997L20.8017 7.94611L19.0699 8.9465ZM20.275 10.1814L21.8261 11.0443L22.7984 9.29656L21.2473 8.43365L20.275 10.1814ZM21.8261 11.0443L21.8333 14.1961L23.8333 14.1916L23.8261 11.0398L21.8261 11.0443ZM21.8333 14.1961L20.2784 15.0578L21.2478 16.8072L22.8027 15.9455L21.8333 14.1961ZM19.1348 16.1813L19.0699 16.2936L20.8017 17.294L20.8666 17.1816L19.1348 16.1813ZM18.6681 17.8446L18.698 19.6255L20.6977 19.5919L20.6678 17.811L18.6681 17.8446ZM18.698 19.6255L15.97 21.2088L16.974 22.9386L19.702 21.3553L18.698 19.6255ZM15.97 21.2088L14.444 20.2927L13.4145 22.0074L14.9406 22.9235L15.97 21.2088ZM12.8998 19.8647H12.7681V21.8647H12.8998V19.8647ZM11.227 20.2909L9.70788 21.2005L10.7353 22.9164L12.2544 22.0068L11.227 20.2909ZM9.70788 21.2005L6.97125 19.6235L5.97268 21.3563L8.70931 22.9333L9.70788 21.2005ZM6.97125 19.6235L7.00118 17.8503L5.00146 17.8166L4.97153 19.5897L6.97125 19.6235ZM6.60525 16.3094L6.53573 16.1879L4.79997 17.1815L4.86949 17.3029L6.60525 16.3094ZM5.39052 15.0566L3.8431 14.1958L2.87081 15.9435L4.41823 16.8044L5.39052 15.0566ZM3.8431 14.1958L3.83594 11.0439L1.83594 11.0485L1.8431 14.2003L3.8431 14.1958ZM3.83594 11.0439L5.39082 10.1823L4.42139 8.43292L2.86651 9.29459L3.83594 11.0439ZM6.53442 9.05883L6.59931 8.9465L4.86748 7.94611L4.80259 8.05844L6.53442 9.05883ZM7.00114 7.39545L6.97118 5.61454L4.97146 5.64819L5.00142 7.4291L7.00114 7.39545ZM6.97118 5.61454L9.69916 4.03125L8.69522 2.30148L5.96724 3.88477L6.97118 5.61454ZM9.69916 4.03125L11.2252 4.94742L12.2547 3.2327L10.7286 2.31653L9.69916 4.03125ZM12.7694 5.37534H12.9011V3.37534H12.7694V5.37534ZM14.4422 4.94921L15.9613 4.03962L14.9339 2.32371L13.4148 3.23329L14.4422 4.94921ZM15.9613 4.03962L18.698 5.61663L19.6966 3.88375L16.9599 2.30675L15.9613 4.03962ZM18.698 5.61663L18.6681 7.39545L20.6678 7.4291L20.6977 5.65027L18.698 5.61663ZM18.698 5.61663L18.698 5.61663L20.6977 5.65028C20.7099 4.92322 20.3266 4.24681 19.6966 3.88375L18.698 5.61663ZM15.9613 4.03962L15.9613 4.03962L16.9599 2.30675C16.3314 1.9446 15.5562 1.95109 14.9339 2.32371L15.9613 4.03962ZM12.9011 5.37534C13.4439 5.37534 13.9765 5.22806 14.4422 4.94921L13.4148 3.23329C13.2596 3.32625 13.082 3.37534 12.9011 3.37534V5.37534ZM11.2252 4.94742C11.6916 5.22742 12.2254 5.37534 12.7694 5.37534V3.37534C12.588 3.37534 12.4101 3.32603 12.2547 3.2327L11.2252 4.94742ZM9.69916 4.03125L9.69916 4.03125L10.7286 2.31653C10.1041 1.94162 9.32518 1.93586 8.69522 2.30148L9.69916 4.03125ZM6.97118 5.61454V5.61454L5.96724 3.88477C5.34025 4.24867 4.95926 4.92335 4.97146 5.64819L6.97118 5.61454ZM6.59931 8.9465C6.87139 8.47547 7.01029 7.93934 7.00114 7.39545L5.00142 7.4291C5.00448 7.61039 4.95818 7.7891 4.86748 7.94611L6.59931 8.9465ZM5.39082 10.1823C5.86687 9.91846 6.26219 9.53011 6.53442 9.05883L4.80259 8.05844C4.71185 8.21554 4.58008 8.34498 4.42139 8.43292L5.39082 10.1823ZM3.83594 11.0439L3.83594 11.0439L2.86651 9.29459C2.22911 9.64781 1.83429 10.3198 1.83594 11.0485L3.83594 11.0439ZM3.8431 14.1958L3.8431 14.1958L1.8431 14.2003C1.84475 14.9246 2.23786 15.5914 2.87081 15.9435L3.8431 14.1958ZM6.53573 16.1879C6.26419 15.7135 5.86819 15.3223 5.39052 15.0566L4.41823 16.8044C4.57745 16.8929 4.70945 17.0233 4.79996 17.1815L6.53573 16.1879ZM7.00118 17.8503C7.01029 17.3104 6.87351 16.778 6.60525 16.3094L4.86949 17.3029C4.95891 17.4591 5.0045 17.6366 5.00146 17.8166L7.00118 17.8503ZM6.97125 19.6235V19.6235L4.97153 19.5897C4.95926 20.3168 5.34261 20.9933 5.97268 21.3563L6.97125 19.6235ZM9.70788 21.2005L9.70788 21.2005L8.70931 22.9333C9.33776 23.2955 10.113 23.289 10.7353 22.9164L9.70788 21.2005ZM12.7681 19.8647C12.2253 19.8647 11.6927 20.012 11.227 20.2909L12.2544 22.0068C12.4096 21.9138 12.5872 21.8647 12.7681 21.8647V19.8647ZM14.444 20.2927C13.9776 20.0127 13.4438 19.8647 12.8998 19.8647V21.8647C13.0812 21.8647 13.2591 21.914 13.4145 22.0074L14.444 20.2927ZM15.97 21.2088H15.97L14.9406 22.9235C15.5651 23.2985 16.344 23.3042 16.974 22.9386L15.97 21.2088ZM18.698 19.6255L18.698 19.6255L19.702 21.3553C20.3289 20.9914 20.7099 20.3167 20.6977 19.5919L18.698 19.6255ZM19.0699 16.2936C18.7978 16.7646 18.6589 17.3007 18.6681 17.8446L20.6678 17.811C20.6647 17.6297 20.711 17.451 20.8017 17.294L19.0699 16.2936ZM20.2784 15.0578C19.8023 15.3216 19.407 15.71 19.1348 16.1812L20.8666 17.1816C20.9573 17.0245 21.0891 16.8951 21.2478 16.8072L20.2784 15.0578ZM21.8333 14.1961V14.1961L22.8027 15.9455C23.4401 15.5923 23.8349 14.9203 23.8333 14.1916L21.8333 14.1961ZM21.8261 11.0443L21.8261 11.0443L23.8261 11.0398C23.8245 10.3155 23.4313 9.64867 22.7984 9.29656L21.8261 11.0443ZM19.1357 9.06035C19.4071 9.53019 19.8008 9.91763 20.275 10.1814L21.2473 8.43365C21.0892 8.34573 20.958 8.21658 20.8675 8.05997L19.1357 9.06035ZM20.8017 7.94611C20.711 7.7891 20.6647 7.61039 20.6678 7.42909L18.6681 7.39545C18.6589 7.93933 18.7978 8.47547 19.0699 8.9465L20.8017 7.94611Z" fill="#D2D2D2"/>
</svg>
