<svg width="23" height="19" viewBox="0 0 23 19" fill="none" xmlns="http://www.w3.org/2000/svg">
<g opacity="0.5">
<path d="M21.2959 0.619018L1.80829 7.95134C0.478224 8.47192 0.486113 9.1956 1.56585 9.51829L6.42613 10.9981L8.28578 16.56C8.51186 17.1688 8.40042 17.4102 9.05571 17.4102C9.56143 17.4102 9.78577 17.1853 10.0674 16.9169C10.2465 16.7459 11.31 15.7373 12.4974 14.6111L17.553 18.2549C18.4833 18.7556 19.155 18.4962 19.3867 17.4121L22.7053 2.15653C23.0451 0.827701 22.186 0.224951 21.2959 0.619018ZM7.18889 10.6581L18.144 3.91579C18.6909 3.59224 19.1923 3.76619 18.7806 4.1227L9.40019 12.3789L9.03495 16.1791L7.18889 10.6581Z" fill="white"/>
</g>
</svg>
