<svg width="32" height="32" viewBox="0 0 32 32" fill="none" xmlns="http://www.w3.org/2000/svg">
<path d="M32 16C32 7.16344 24.8366 0 16 0C7.16344 0 0 7.16344 0 16C0 24.8366 7.16344 32 16 32C24.8366 32 32 24.8366 32 16Z" fill="#94A6C3"/>
<path d="M9.18222 17.3261L9.86891 11.8314L3.90332 7.43094L9.35389 9.39174L10.6415 7.29414L15.341 4.19336L25.7056 10.2581L26.2421 19.5149L21.6285 26.3321L17.9804 26.9249L19.8688 23.2541V19.7201L18.4955 16.9613L17.1006 15.981L14.9547 18.3293V20.8146L13.2809 22.4789L11.1565 22.7525L10.2123 23.3225L8.66721 22.7981L8.02344 20.3357L9.18222 18.6029V17.3261Z" fill="white"/>
<path d="M18.7129 7.38623C17.5756 7.13546 16.331 7.20383 16.331 7.20383C16.331 7.20383 15.9233 9.21022 13.3911 9.73465C13.4126 9.73465 16.7387 10.943 18.7129 7.38623Z" fill="#94A6C3"/>
<path d="M19.7466 25.5817C21.12 24.4418 22.15 22.8686 22.6221 21.0902C22.6436 21.0217 22.8367 20.9078 22.9655 20.8165C23.18 20.6797 23.3947 20.5658 23.4375 20.3834C23.5234 19.8589 23.5663 19.3118 23.5663 18.7645C23.5663 18.5593 23.3732 18.3541 23.18 18.1489C23.0298 18.0122 22.8796 17.8525 22.8796 17.7386C22.6651 15.6638 21.7638 13.7258 20.326 12.3122L20.1758 12.4718C21.5706 13.8626 22.4719 15.755 22.6651 17.7613C22.6865 17.9438 22.8582 18.1262 23.0298 18.3086C23.18 18.4453 23.3517 18.6505 23.3517 18.7417C23.3517 19.2661 23.3088 19.7906 23.223 20.315C23.2015 20.4062 23.0084 20.4974 22.8582 20.5886C22.6436 20.7026 22.4504 20.8165 22.4075 20.999C21.8925 22.9369 20.7123 24.6241 19.1457 25.7186C19.4248 25.0801 20.3045 23.0053 20.7767 21.9565L20.6909 18.5821L17.9655 15.7777L16.4205 16.0058L14.7252 18.9242C14.7252 18.9242 15.5192 19.9958 14.4033 21.2497C13.3089 22.481 12.4506 22.7546 12.4506 22.7546L11.6566 22.2985C11.8927 21.9794 12.3648 21.5006 12.7296 21.1814C13.3519 20.6341 13.9742 20.5886 13.9742 19.9958C13.9956 18.7645 12.751 19.1066 12.751 19.1066L12.3004 19.5625L12.1073 21.2497L11.1631 22.5037L11.0557 22.481L9.51074 22.1161C9.51074 22.1161 10.4549 21.5918 10.6051 20.999C10.7553 20.4289 10.3047 18.5366 10.2832 18.4226C10.3047 18.4453 10.7339 18.833 10.927 19.4713C11.2703 18.4681 11.721 17.5106 11.8497 17.4194C11.9785 17.3282 13.7167 16.3478 13.7167 16.3478L13.1373 17.9665L13.5665 17.7158L14.5965 15.0253C14.5965 15.0253 15.605 14.5009 16.3561 14.5009C17.708 14.4782 19.7037 12.7226 18.8025 9.57617C19.0599 9.69014 23.5234 12.0614 24.2959 16.7125C24.8752 20.2922 22.9655 23.6437 19.7466 25.5817Z" fill="#94A6C3"/>
<path d="M14.6374 7.887C15.131 7.27137 14.9379 6.35938 14.9379 6.35938L13.5001 8.61659C13.4786 8.61659 14.0151 8.63936 14.6374 7.887Z" fill="#1B314F"/>
<path d="M9.81085 20.2225L9.98253 19.3105C9.98253 19.3105 9.27436 20.633 9.21001 20.8153C9.1456 21.0206 9.25293 21.3853 9.53187 21.3626C9.81085 21.3398 10.1542 20.9065 10.1542 20.5873C10.1542 20.177 9.81085 20.2225 9.81085 20.2225Z" fill="#1B314F"/>
<path d="M22.5559 5.72128C22.5559 5.72128 23.6288 5.76689 24.7448 5.90368C22.234 3.80609 19.8521 3.19049 17.9208 3.19049C15.2599 3.19049 13.4574 4.35329 13.3501 4.42169L14.187 3.00809C14.187 3.00809 10.8394 2.6661 9.65911 6.42808C9.35869 5.63009 9.07974 4.46729 9.07974 4.46729C9.07974 4.46729 7.34155 6.08609 8.15698 8.77649C6.16133 8.0013 3.30729 6.92967 3.2 6.90691C3.04978 6.88408 3.00687 6.9525 3.00687 6.9525C3.00687 6.9525 2.96395 7.02088 3.0927 7.1349C3.32875 7.34008 7.83513 10.8741 8.82223 11.5581C8.60764 12.3789 8.60764 12.7665 8.82223 13.1541C9.12266 13.6784 9.1441 13.952 9.10118 14.3396C9.05826 14.7272 8.672 18.0789 8.58616 18.4892C8.50033 18.8996 7.59905 20.3588 7.64197 20.792C7.68489 21.2253 8.24282 23.072 8.7364 23.2773C9.10118 23.4141 10.0025 23.7105 10.6033 23.7105C10.8179 23.7105 11.011 23.6648 11.0969 23.5736C11.4617 23.2316 11.569 23.1632 11.8265 23.1632C11.8479 23.1632 11.8694 23.1632 11.8908 23.1632C11.9982 23.1632 12.1269 23.1861 12.2771 23.1861C12.6204 23.1861 13.0711 23.1177 13.3929 22.7984C13.865 22.2968 14.6805 21.6128 14.938 21.2936C15.2599 20.8604 15.4316 20.2676 15.3458 19.6748C15.2813 19.1277 15.5603 18.6489 15.8822 18.1701C16.2899 17.6 17.041 16.5741 17.041 16.5741C18.5216 17.7597 19.4444 19.5609 19.4444 21.5672C19.4444 25.124 16.526 27.9968 12.9209 27.9968C12.363 27.9968 11.8265 27.9284 11.29 27.7916C12.9423 28.4072 14.3372 28.6124 15.4745 28.6124C17.8993 28.6124 19.1869 27.6776 19.1869 27.6776C19.1869 27.6776 18.7363 28.2932 18.0067 29C18.0281 29 18.0281 29 18.0281 29C22.041 28.4072 23.9937 24.8961 23.9937 24.8961C23.9937 24.8961 23.8435 26.036 23.6504 26.8112C28.9936 22.5476 28.0923 17.2124 28.0708 17.03C28.1138 17.0984 28.6503 17.7825 28.9292 18.1473C29.7875 8.75366 22.5559 5.72128 22.5559 5.72128ZM14.3372 20.7237C14.2513 20.8377 13.8866 21.1796 13.6291 21.4305C13.3715 21.6812 13.0926 21.9321 12.8779 22.16C12.7921 22.2512 12.6204 22.2968 12.363 22.2968C12.2771 22.2968 12.1913 22.2968 12.1269 22.2968C12.084 22.2968 12.0411 22.2968 11.9982 22.2968C11.9552 22.2968 11.9338 22.2968 11.9123 22.2968C11.8479 22.2968 11.7836 22.2968 11.7192 22.2968C12.0411 21.8408 12.9853 20.792 13.3071 20.564C13.6934 20.2904 13.8866 20.0168 13.6505 19.5381C13.4144 19.0593 12.7921 19.1732 12.7921 19.1732C12.7921 19.1732 13.1569 19.0136 13.4788 19.0136C13.0711 18.8996 12.5561 19.0136 12.32 19.2645C12.0625 19.5152 12.1055 20.4045 11.9982 20.9744C11.8908 21.5672 11.5261 21.8636 10.9681 22.4109C10.6677 22.7073 10.4531 22.7984 10.2814 22.7984C9.91662 22.73 9.48744 22.6161 9.18701 22.5021C8.97242 22.2056 8.65056 21.2253 8.56473 20.8149C8.62908 20.5868 8.88659 20.108 9.01534 19.8345C9.27285 19.31 9.42308 19.0136 9.466 18.7401C9.55184 18.3525 9.83078 15.9584 9.9381 14.9552C10.217 15.3428 10.6033 15.9813 10.5175 16.3917C11.1398 15.4568 10.6891 14.5448 10.4746 14.18C10.2814 13.8153 10.0239 13.0857 10.2385 12.3105C10.4531 11.5353 11.2256 9.39207 11.2256 9.39207C11.2256 9.39207 11.4831 9.87089 11.8479 9.77969C12.2128 9.68849 15.1526 4.99168 15.1526 4.99168C15.1526 4.99168 15.9466 6.83847 15.1096 8.1837C14.2513 9.52887 13.4144 9.77969 13.4144 9.77969C13.4144 9.77969 14.5947 10.0077 15.6891 9.16407C16.1397 10.2813 16.5689 11.4441 16.5904 11.6037C16.526 11.7633 15.6676 13.952 15.5818 14.0889C15.5388 14.1344 15.2385 14.2257 15.0238 14.2712C14.659 14.3853 14.4445 14.4536 14.3586 14.5221C14.2084 14.6589 13.5218 16.6653 13.1999 17.6456C12.8136 17.7597 12.4273 17.9876 12.1483 18.4437C12.2986 18.3296 12.7707 18.2613 13.114 18.2156C13.4144 18.1928 14.3372 18.7173 14.5732 19.6976C14.5732 19.7205 14.5732 19.7205 14.5732 19.7433C14.6162 20.108 14.5089 20.4501 14.3372 20.7237ZM12.32 20.9973C12.5131 20.7008 12.4917 20.1992 12.5131 20.0397C12.5346 19.88 12.5775 19.5836 12.7492 19.5381C12.9209 19.4924 13.3286 19.5609 13.3286 19.88C13.3286 20.1764 13.0282 20.2449 12.8136 20.4501C12.6634 20.6096 12.363 20.9516 12.32 20.9973ZM20.8822 16.6424C21.0967 15.4797 21.1181 14.4765 21.0539 13.6556C21.8907 14.8412 22.4057 16.2777 22.5559 17.7597C22.5774 17.9421 22.7491 18.1245 22.9207 18.3068C23.0709 18.4437 23.2426 18.6261 23.2426 18.7401C23.2426 19.2645 23.1997 19.7888 23.1139 20.3133C23.0924 20.3816 22.8993 20.4956 22.7491 20.5868C22.5344 20.7008 22.3413 20.8149 22.2985 20.9973C21.8263 22.7528 20.8177 24.3033 19.4659 25.3976C21.4615 23.1861 22.4272 19.5381 20.8822 16.6424ZM19.5302 25.6028C20.925 24.4628 21.998 22.8668 22.4701 21.0656C22.4916 20.9973 22.6847 20.8832 22.8134 20.792C23.0281 20.678 23.2426 20.5413 23.2856 20.3588C23.3714 19.8345 23.4143 19.2872 23.4143 18.7401C23.4143 18.5349 23.2212 18.3296 23.0281 18.1245C22.9208 17.9876 22.7491 17.828 22.7491 17.714C22.5774 16.0496 21.9551 14.4765 20.9894 13.1769C20.5602 10.4409 18.8435 9.59729 18.8006 9.57446C18.8435 9.6429 19.9594 11.3529 19.1869 13.3593C18.3929 15.3885 16.3543 15.0693 16.1826 15.0921C16.0109 15.0921 15.3458 16.0041 14.5089 17.6912C14.4015 17.6456 13.9509 17.5317 13.4359 17.6228C13.8221 16.4829 14.4015 14.864 14.5089 14.7272C14.5517 14.6817 14.8737 14.5905 15.0882 14.5221C15.496 14.4081 15.6891 14.3396 15.7534 14.2484C15.7964 14.18 16.0109 13.6556 16.2256 13.1085C16.4187 13.1085 16.9122 13.0629 16.9551 13.0401C16.998 12.9945 17.4058 11.8773 17.4058 11.7405C17.4058 11.6265 16.5689 9.4149 16.247 8.57127C16.3972 8.38887 16.5474 8.16087 16.6976 7.9101C21.0967 8.4117 24.5302 12.3789 24.5302 17.1897C24.5302 20.8832 22.4916 24.0981 19.5302 25.6028Z" fill="#1B314F"/>
<path d="M13.8209 13.2901C14.2287 12.7885 14.0141 11.8538 13.263 11.6942C13.4562 11.2154 13.7351 10.2578 13.7351 10.2578C13.7351 10.2578 11.5463 13.9058 11.3532 13.9741C11.1601 14.0425 10.967 13.2445 10.967 13.2445C10.5592 14.909 11.6537 15.1369 11.7824 14.6126C12.3832 14.4529 13.4133 13.769 13.8209 13.2901Z" fill="#1B314F"/>
<path d="M11.9517 14.1796L13.0676 12.1504C13.0676 12.1504 13.7113 12.4924 13.3895 13.0396C12.9818 13.678 11.9517 14.1796 11.9517 14.1796Z" fill="#FFD923"/>
<path d="M25.752 23.574C25.4302 24.0301 25.0654 24.5089 24.6362 24.9648C27.4044 19.3105 24.7649 14.1349 24.6576 13.9297C24.8508 14.1349 25.0439 14.363 25.2155 14.5681C27.34 17.0761 27.5975 20.8381 25.752 23.574Z" fill="#D82122"/>
<path d="M28.3242 16.3006C27.3585 13.5418 25.9851 11.1934 22.9594 9.07311C20.0411 7.02112 16.9081 7.18069 16.7364 7.20352C16.7148 7.20352 16.6934 7.20352 16.6934 7.20352C16.8007 7.15792 16.9081 7.13509 17.0153 7.11231C17.6805 6.88431 18.5389 6.70192 19.3972 6.5879C21.6719 6.24591 23.968 7.06672 25.5345 8.82228C25.5559 8.84511 25.5559 8.84511 25.5774 8.86789C27.3585 10.8742 28.2813 13.3822 28.3242 16.3006Z" fill="#D82122"/>
<path d="M22.2792 5.01436C19.0819 4.37596 17.0218 4.69516 15.5412 5.28795C15.4983 5.10556 15.348 4.74075 15.2193 4.44435C14.7686 5.01436 14.2965 5.69836 13.9961 6.13156C13.1807 6.72433 12.8374 7.29435 12.8374 7.29435C13.3094 5.58435 14.6828 4.30756 16.3566 3.98836C16.8287 3.89716 17.3437 3.85156 17.9016 3.85156C19.3823 3.87436 20.863 4.26196 22.2792 5.01436Z" fill="#D82122"/>
<path d="M10.4544 9.39197C7.94372 9.30076 8.7806 6.19997 8.82352 6.01758C8.82352 6.04037 8.99519 8.45715 10.4544 9.39197Z" fill="#D82122"/>
<path d="M12.9212 3.80664C10.99 5.03783 11.3762 7.979 11.3762 7.979C9.53073 4.99223 12.7711 3.87504 12.9212 3.80664Z" fill="#D82122"/>
<path d="M9.74437 10.2124C9.87312 10.3264 10.0019 10.5316 9.85169 10.828C9.76585 10.9876 9.6371 10.9648 9.44394 10.8736C9.18644 10.7368 7.6414 9.77926 6.24658 8.79883C7.83455 9.39163 9.44394 10.03 9.70145 10.1668C9.70145 10.1668 9.72293 10.1896 9.74437 10.2124Z" fill="white"/>
</svg>
