<svg width="32" height="32" viewBox="0 0 32 32" fill="none" xmlns="http://www.w3.org/2000/svg">
<path d="M17 0H15C6.71573 0 0 6.71573 0 15V17C0 25.2843 6.71573 32 15 32H17C25.2843 32 32 25.2843 32 17V15C32 6.71573 25.2843 0 17 0Z" fill="#00ADE8"/>
<path fill-rule="evenodd" clip-rule="evenodd" d="M9.1209 8.66852C8.79722 6.93528 10.1272 5.33398 11.8904 5.33398C13.4464 5.33398 14.7077 6.59536 14.7077 8.15134V11.6247C15.097 11.5972 15.4924 11.5832 15.8929 11.5832C16.2777 11.5832 16.6578 11.5962 17.0322 11.6215V8.15134C17.0322 6.59536 18.2936 5.33398 19.8496 5.33398C21.6128 5.33398 22.9427 6.93528 22.6191 8.66852L21.8567 12.7513C24.4733 13.8937 26.4519 15.8778 26.4519 18.3711V19.8795C26.4519 21.9297 25.0955 23.6464 23.1992 24.8052C21.2881 25.973 18.7028 26.6673 15.8929 26.6673C13.083 26.6673 10.4977 25.973 8.58665 24.8052C6.69039 23.6464 5.33398 21.9297 5.33398 19.8795V18.3711C5.33398 15.891 7.29223 13.9145 9.8868 12.7698L9.1209 8.66852ZM20.8796 13.2877L21.7718 8.51029C21.9964 7.30733 21.0734 6.19594 19.8496 6.19594C18.7697 6.19594 17.8942 7.0714 17.8942 8.15134V12.5715C17.6112 12.5352 17.3238 12.5064 17.0322 12.4856C16.6586 12.4588 16.2784 12.4451 15.8929 12.4451C15.4917 12.4451 15.0962 12.46 14.7077 12.4889C14.4163 12.5106 14.1287 12.5403 13.8458 12.5774V8.15134C13.8458 7.0714 12.9703 6.19594 11.8904 6.19594C10.6666 6.19594 9.74354 7.30732 9.96821 8.51029L10.8633 13.3035C8.06505 14.343 6.19593 16.2237 6.19593 18.3711V19.8795C6.19593 23.1523 10.5374 25.8053 15.8929 25.8053C21.2484 25.8053 25.59 23.1523 25.59 19.8795V18.3711C25.59 16.2126 23.7017 14.3238 20.8796 13.2877Z" fill="#633001"/>
<path d="M25.5903 19.8796C25.5903 23.1523 21.2487 25.8054 15.8932 25.8054C10.5377 25.8054 6.19629 23.1523 6.19629 19.8796V18.3711H25.5903V19.8796Z" fill="#FEDC90"/>
<path fill-rule="evenodd" clip-rule="evenodd" d="M9.96857 8.50967C9.74392 7.3067 10.6669 6.19531 11.8907 6.19531C12.9706 6.19531 13.8461 7.07077 13.8461 8.15072V12.5768C14.506 12.4901 15.1909 12.4445 15.8932 12.4445C16.5793 12.4445 17.2487 12.488 17.8945 12.5708V8.15072C17.8945 7.07077 18.7701 6.19531 19.8499 6.19531C21.0737 6.19531 21.9967 7.3067 21.7721 8.50967L20.8799 13.287C23.702 14.3232 25.5903 16.212 25.5903 18.3704C25.5903 21.6433 21.2487 24.2963 15.8932 24.2963C10.5377 24.2963 6.19629 21.6433 6.19629 18.3704C6.19629 16.223 8.06541 14.3423 10.8636 13.3029L9.96857 8.50967Z" fill="#D1884F"/>
<path d="M13.2008 17.9403C13.2008 18.833 12.7184 19.5565 12.1233 19.5565C11.5283 19.5565 11.0459 18.833 11.0459 17.9403C11.0459 17.0478 11.5283 16.3242 12.1233 16.3242C12.7184 16.3242 13.2008 17.0478 13.2008 17.9403Z" fill="#633001"/>
<path d="M20.6344 17.9403C20.6344 18.833 20.1521 19.5565 19.557 19.5565C18.962 19.5565 18.4795 18.833 18.4795 17.9403C18.4795 17.0478 18.962 16.3242 19.557 16.3242C20.1521 16.3242 20.6344 17.0478 20.6344 17.9403Z" fill="#633001"/>
</svg>
