<svg width="21" height="21" viewBox="0 0 21 21" fill="none" xmlns="http://www.w3.org/2000/svg">
<path d="M10.9931 0.4375C8.27726 0.4375 7.93643 0.449376 6.86975 0.497919C5.80515 0.546671 5.07848 0.71522 4.44264 0.962521C3.78492 1.21795 3.227 1.55963 2.67116 2.11569C2.11491 2.67155 1.77324 3.22949 1.51698 3.88701C1.26907 4.52308 1.10031 5.24999 1.0524 6.3142C1.00469 7.38091 0.992188 7.72196 0.992188 10.4379C0.992188 13.1538 1.00427 13.4937 1.0526 14.5604C1.10156 15.625 1.27011 16.3517 1.51719 16.9875C1.77282 17.6453 2.11449 18.2032 2.67054 18.7591C3.22617 19.3153 3.78409 19.6579 4.44139 19.9133C5.07765 20.1606 5.80453 20.3291 6.86892 20.3779C7.93559 20.4264 8.27622 20.4383 10.9919 20.4383C13.7079 20.4383 14.0477 20.4264 15.1144 20.3779C16.179 20.3291 16.9065 20.1606 17.5428 19.9133C18.2003 19.6579 18.7574 19.3153 19.313 18.7591C19.8693 18.2032 20.2109 17.6453 20.4672 16.9878C20.713 16.3517 20.8818 15.6248 20.9318 14.5606C20.9797 13.4939 20.9922 13.1538 20.9922 10.4379C20.9922 7.72196 20.9797 7.38112 20.9318 6.31441C20.8818 5.24978 20.713 4.52308 20.4672 3.88722C20.2109 3.22949 19.8693 2.67155 19.313 2.11569C18.7567 1.55942 18.2005 1.21774 17.5422 0.962521C16.9046 0.71522 16.1776 0.546671 15.113 0.497919C14.0463 0.449376 13.7067 0.4375 10.99 0.4375H10.9931ZM10.096 2.23966C10.3623 2.23924 10.6594 2.23966 10.9931 2.23966C13.6632 2.23966 13.9796 2.24924 15.034 2.29716C16.009 2.34174 16.5382 2.50467 16.8907 2.64155C17.3574 2.82281 17.6901 3.03948 18.0399 3.38949C18.3899 3.73951 18.6065 4.07286 18.7882 4.53954C18.9251 4.89164 19.0882 5.42083 19.1326 6.39587C19.1805 7.45008 19.1909 7.76676 19.1909 10.4356C19.1909 13.1045 19.1805 13.4212 19.1326 14.4754C19.088 15.4504 18.9251 15.9796 18.7882 16.3317C18.607 16.7984 18.3899 17.1307 18.0399 17.4805C17.6899 17.8305 17.3576 18.0472 16.8907 18.2284C16.5386 18.3659 16.009 18.5284 15.034 18.573C13.9798 18.6209 13.6632 18.6314 10.9931 18.6314C8.32289 18.6314 8.00643 18.6209 6.95225 18.573C5.97724 18.528 5.44807 18.3651 5.09536 18.2282C4.62868 18.047 4.29535 17.8303 3.94534 17.4803C3.59534 17.1303 3.37867 16.7977 3.197 16.3309C3.06013 15.9788 2.897 15.4496 2.85262 14.4745C2.80471 13.4203 2.79512 13.1036 2.79512 10.4331C2.79512 7.76259 2.80471 7.44758 2.85262 6.39337C2.89721 5.41833 3.06013 4.88914 3.197 4.53662C3.37825 4.06994 3.59534 3.73659 3.94534 3.38658C4.29535 3.03656 4.62868 2.81989 5.09536 2.63821C5.44786 2.50071 5.97724 2.3382 6.95225 2.29341C7.87476 2.25174 8.23226 2.23924 10.096 2.23716V2.23966ZM16.3311 3.90014C15.6686 3.90014 15.1311 4.43704 15.1311 5.09977C15.1311 5.7623 15.6686 6.29982 16.3311 6.29982C16.9936 6.29982 17.5311 5.7623 17.5311 5.09977C17.5311 4.43725 16.9936 3.89972 16.3311 3.89972V3.90014ZM10.9931 5.30228C8.15705 5.30228 5.85766 7.60175 5.85766 10.4379C5.85766 13.2741 8.15705 15.5725 10.9931 15.5725C13.8292 15.5725 16.1278 13.2741 16.1278 10.4379C16.1278 7.60175 13.829 5.30228 10.9929 5.30228H10.9931ZM10.9931 7.10444C12.834 7.10444 14.3265 8.59679 14.3265 10.4379C14.3265 12.2788 12.834 13.7714 10.9931 13.7714C9.15206 13.7714 7.65976 12.2788 7.65976 10.4379C7.65976 8.59679 9.15206 7.10444 10.9931 7.10444Z" fill="white"/>
<path d="M10.9931 0.4375C8.27726 0.4375 7.93643 0.449376 6.86975 0.497919C5.80515 0.546671 5.07848 0.71522 4.44264 0.962521C3.78492 1.21795 3.227 1.55963 2.67116 2.11569C2.11491 2.67155 1.77324 3.22949 1.51698 3.88701C1.26907 4.52308 1.10031 5.24999 1.0524 6.3142C1.00469 7.38091 0.992188 7.72196 0.992188 10.4379C0.992188 13.1538 1.00427 13.4937 1.0526 14.5604C1.10156 15.625 1.27011 16.3517 1.51719 16.9875C1.77282 17.6453 2.11449 18.2032 2.67054 18.7591C3.22617 19.3153 3.78409 19.6579 4.44139 19.9133C5.07765 20.1606 5.80453 20.3291 6.86892 20.3779C7.93559 20.4264 8.27622 20.4383 10.9919 20.4383C13.7079 20.4383 14.0477 20.4264 15.1144 20.3779C16.179 20.3291 16.9065 20.1606 17.5428 19.9133C18.2003 19.6579 18.7574 19.3153 19.313 18.7591C19.8693 18.2032 20.2109 17.6453 20.4672 16.9878C20.713 16.3517 20.8818 15.6248 20.9318 14.5606C20.9797 13.4939 20.9922 13.1538 20.9922 10.4379C20.9922 7.72196 20.9797 7.38112 20.9318 6.31441C20.8818 5.24978 20.713 4.52308 20.4672 3.88722C20.2109 3.22949 19.8693 2.67155 19.313 2.11569C18.7567 1.55942 18.2005 1.21774 17.5422 0.962521C16.9046 0.71522 16.1776 0.546671 15.113 0.497919C14.0463 0.449376 13.7067 0.4375 10.99 0.4375H10.9931ZM10.096 2.23966C10.3623 2.23924 10.6594 2.23966 10.9931 2.23966C13.6632 2.23966 13.9796 2.24924 15.034 2.29716C16.009 2.34174 16.5382 2.50467 16.8907 2.64155C17.3574 2.82281 17.6901 3.03948 18.0399 3.38949C18.3899 3.73951 18.6065 4.07286 18.7882 4.53954C18.9251 4.89164 19.0882 5.42083 19.1326 6.39587C19.1805 7.45008 19.1909 7.76676 19.1909 10.4356C19.1909 13.1045 19.1805 13.4212 19.1326 14.4754C19.088 15.4504 18.9251 15.9796 18.7882 16.3317C18.607 16.7984 18.3899 17.1307 18.0399 17.4805C17.6899 17.8305 17.3576 18.0472 16.8907 18.2284C16.5386 18.3659 16.009 18.5284 15.034 18.573C13.9798 18.6209 13.6632 18.6314 10.9931 18.6314C8.32289 18.6314 8.00643 18.6209 6.95225 18.573C5.97724 18.528 5.44807 18.3651 5.09536 18.2282C4.62868 18.047 4.29535 17.8303 3.94534 17.4803C3.59534 17.1303 3.37867 16.7977 3.197 16.3309C3.06013 15.9788 2.897 15.4496 2.85262 14.4745C2.80471 13.4203 2.79512 13.1036 2.79512 10.4331C2.79512 7.76259 2.80471 7.44758 2.85262 6.39337C2.89721 5.41833 3.06013 4.88914 3.197 4.53662C3.37825 4.06994 3.59534 3.73659 3.94534 3.38658C4.29535 3.03656 4.62868 2.81989 5.09536 2.63821C5.44786 2.50071 5.97724 2.3382 6.95225 2.29341C7.87476 2.25174 8.23226 2.23924 10.096 2.23716V2.23966ZM16.3311 3.90014C15.6686 3.90014 15.1311 4.43704 15.1311 5.09977C15.1311 5.7623 15.6686 6.29982 16.3311 6.29982C16.9936 6.29982 17.5311 5.7623 17.5311 5.09977C17.5311 4.43725 16.9936 3.89972 16.3311 3.89972V3.90014ZM10.9931 5.30228C8.15705 5.30228 5.85766 7.60175 5.85766 10.4379C5.85766 13.2741 8.15705 15.5725 10.9931 15.5725C13.8292 15.5725 16.1278 13.2741 16.1278 10.4379C16.1278 7.60175 13.829 5.30228 10.9929 5.30228H10.9931ZM10.9931 7.10444C12.834 7.10444 14.3265 8.59679 14.3265 10.4379C14.3265 12.2788 12.834 13.7714 10.9931 13.7714C9.15206 13.7714 7.65976 12.2788 7.65976 10.4379C7.65976 8.59679 9.15206 7.10444 10.9931 7.10444Z" fill="white"/>
</svg>
