<svg width="106" height="78" viewBox="0 0 106 78" fill="none" xmlns="https://www.w3.org/2000/svg">
<path fillRule="evenodd" clipRule="evenodd" d="M12.1944 1.01607C9.42073 1.43819 6.72743 2.86718 4.53412 5.08065C3.38647 6.23872 2.87322 6.97134 2.1258 8.51674C0.495301 11.8891 0.580161 10.2085 0.580161 39.1153C0.580161 68.022 0.495301 66.3414 2.1258 69.7138C3.73529 73.0422 6.5316 75.4643 10.2626 76.7615L11.8945 77.3288H52.6927H93.4909L95.0209 76.8411C98.9267 75.5961 101.79 73.1744 103.473 69.6936C105.093 66.3443 105.009 68.0053 105.009 39.1153C105.009 10.199 105.095 11.8908 103.458 8.50529C101.807 5.09086 99.0466 2.73474 95.1229 1.39091L93.6949 0.901737L53.5087 0.872999C31.4063 0.857172 12.8149 0.921522 12.1944 1.01607ZM45.7126 21.2799C46.819 21.7557 71.2239 36.2044 71.7343 36.6856C73.3034 38.1658 73.1171 40.5211 71.3243 41.8693C70.1666 42.74 46.0573 56.8572 45.3495 57.0789C44.0025 57.5009 42.3732 56.7326 41.6699 55.3442C41.2321 54.48 41.2207 23.7711 41.6578 22.9136C42.4799 21.3009 44.1739 20.6182 45.7126 21.2799Z" fill="white" fill-opacity="0.5"/>
</svg>
